<?xml version="1.0" encoding="utf-8"?>
<!-- Generator: Adobe Illustrator 15.0.0, SVG Export Plug-In . SVG Version: 6.00 Build 0)  -->
<!DOCTYPE svg PUBLIC "-//W3C//DTD SVG 1.1//EN" "http://www.w3.org/Graphics/SVG/1.1/DTD/svg11.dtd">
<svg version="1.1" id="レイヤー_1" xmlns="http://www.w3.org/2000/svg" xmlns:xlink="http://www.w3.org/1999/xlink" x="0px"
	 y="0px" width="510.236px" height="510.236px" viewBox="0 0 510.236 510.236" enable-background="new 0 0 510.236 510.236"
	 xml:space="preserve">
<path fill-rule="evenodd" clip-rule="evenodd" fill="#333333" d="M24.427,244.586c-3.26,25.09-0.7,50.02,6.8,73.72l0.29,0.9
	l-0.13-0.93c113.54-21.78,198.05-62.27,193.12-94.46c-4.25-27.75-73.64-40.89-166.2-34.86c35.4-58.75,98.74-92.57,162.53-80.18
	c22.99,4.47,43.68,14.49,61.24,28.64c21.59-6.55,44.52-8.09,67.51-3.62c63.74,12.39,109.77,67.39,120.61,135.04
	c-83.32-40.06-152.32-53.74-166.63-29.66c-16.62,27.97,46.36,96.99,143.23,159.64c0.62,0.91-0.38,2.15,0.91,0.59
	c18.1-21.85,30.84-47.61,36.41-76.27c3.01-15.47,3.77-30.95,2.48-46.17c-6.94-81.71-73.01-156.06-166.86-184.27
	c-8.38-7.28-11.72-13.9-11.72-13.9s-1.41,1.89-4.02,4.27c-7.39-6.9-9.33-12.98-9.33-12.98s-3.78,4.97-13.08,8.54
	c-1.49-3.13-2.08-5.37-2.08-5.37s-5.71,5-16.43,8.62c-96.81-8.27-185,35.77-221.88,108.39c-6.94,13.66-12.06,28.34-15.08,43.87
	l-0.03,0.17l-0.04,0.18C25.406,237.856,24.856,241.216,24.427,244.586z M111.937,235.216c-0.45-3.93,2.29-7.35,6.13-7.63l60.22-4.4
	c4.24-0.31,8.02,2.83,8.43,6.99c0.4,4.16-2.72,7.74-6.95,8l-60.09,3.72C115.836,242.136,112.376,239.146,111.937,235.216z
	 M403.167,291.816c-1.89,3.47-6.22,4.94-9.69,3.28l-54.31-25.95c-3.82-1.82-5.38-6.31-3.44-10.01c1.93-3.71,6.61-5.2,10.43-3.33
	l54.18,26.63C403.796,284.136,405.057,288.336,403.167,291.816z M212.026,279.957c-1.54,7.87,15.48,17.8,38.01,22.18
	c22.53,4.37,42.03,1.54,43.56-6.33c1.53-7.87-15.49-17.8-38.01-22.18C233.057,269.256,213.557,272.086,212.026,279.957z
	 M183.387,362.656c21.84,2.46,46.59-2.91,57.96-17.24c5.17,17.54,26.1,31.79,47.27,37.69c26.29,7.32,56.45,2.65,61.05-27.01
	c0.45-2.92-7.2-4.61-7.87-1.61c-8.9,39.87-95.79,19.23-93.66-20.79c0.07-1.44-1.96-2.58-3.95-2.85c-1.95-0.5-4.27-0.2-4.74,1.16
	c-13.03,37.91-101.33,24.5-94.64-15.8c0.51-3.03-7.22-4.33-7.89-1.46C130.057,343.977,156.267,359.596,183.387,362.656z"/>
</svg>
